# xmcd
#
# Track frame offsets:
#	150
#	21688
#	40287
#	63154
#	80489
#	99123
#	116301
#	134546
#	153100
#	169438
#	188944
#	205664
#	221811
#	238395
#	257911
#
# Disc length: 3701 seconds
#
# Revision: 1
# Processed by: cddbd v1.5.2PL0 Copyright (c) Steve Scherf et al.
# Submitted via: EasyCDDAExtractor 2010.6.0.0
#
DISCID=d80e730f
DTITLE=晓花 - 神话金嗓
DYEAR=2008
DGENRE=Blues
TTITLE0=美丽的神话
TTITLE1=我不后悔
TTITLE2=绽放
TTITLE3=一千年以后
TTITLE4=风之彩
TTITLE5=第一次爱的人
TTITLE6=当爱情经过的时候
TTITLE7=亲爱的你怎么不在我身边
TTITLE8=一首简单的歌
TTITLE9=寂寞在唱歌
TTITLE10=说谎的女人
TTITLE11=想唱就唱
TTITLE12=飘摇
TTITLE13=风雨无阻
TTITLE14=特别的爱给特别的你
EXTD=
EXTT0=
EXTT1=
EXTT2=
EXTT3=
EXTT4=
EXTT5=
EXTT6=
EXTT7=
EXTT8=
EXTT9=
EXTT10=
EXTT11=
EXTT12=
EXTT13=
EXTT14=
PLAYORDER=
